<?xml version="1.0" encoding="UTF-8"?> <svg xmlns="http://www.w3.org/2000/svg" width="327" height="75" viewBox="0 0 327 75" fill="none"> <path d="M276.186 67.683C283.653 72.0103 292.329 74.4786 301.593 74.4786C310.846 74.4786 319.522 71.9998 327 67.6725V6.80611C319.522 2.47877 310.846 0 301.593 0C292.34 0 283.664 2.47877 276.186 6.79561V67.683Z" fill="#B3B3B3"></path> <path d="M301.583 1.70154C292.896 1.70154 284.735 3.95973 277.656 7.90896V66.5696C284.735 70.5294 292.896 72.7771 301.583 72.7771C310.269 72.7771 318.43 70.5189 325.509 66.5591V7.91946C318.43 3.95974 310.269 1.70154 301.583 1.70154ZM324.448 65.7084C317.653 69.416 309.859 71.5167 301.583 71.5167C293.306 71.5167 285.513 69.416 278.717 65.7084V8.78073C285.513 5.07308 293.296 2.97243 301.583 2.97243C309.87 2.97243 317.653 5.08358 324.448 8.78073V65.7084Z" fill="#666666"></path> <path d="M279.998 43.7776V47.9159H323.187V12.0052L279.998 43.7776Z" fill="#E10B17"></path> <path d="M323.187 9.75753C316.686 6.50152 309.355 4.66345 301.593 4.66345C293.831 4.66345 286.5 6.50152 279.998 9.75753V43.7776L323.187 11.9947V9.75753Z" fill="#1D70B6"></path> <path d="M279.998 46.2249V64.469C286.437 67.8826 293.789 69.8257 301.593 69.8257C309.397 69.8257 316.749 67.8826 323.187 64.469V46.2249H279.998Z" fill="#1D1E1C"></path> <path d="M291.594 48.9452V63.1351H289.441V57.3373C288.989 57.5053 288.475 57.6419 287.781 57.6419C286.332 57.6419 285.628 57.0327 285.366 56.7386C284.672 55.9614 284.609 54.7745 284.609 54.0393V48.9452H286.763V53.5666C286.763 54.0183 286.763 54.8585 287.172 55.3207C287.477 55.6463 287.907 55.7093 288.233 55.7093C288.643 55.7093 289.031 55.6463 289.441 55.4047V48.9557H291.594V48.9452Z" fill="white"></path> <path d="M293.527 51.8861C293.527 51.2769 293.653 50.2476 294.672 49.4703C295.166 49.0817 295.943 48.7351 297.067 48.7351C297.928 48.7351 298.874 48.9347 299.546 49.4283C299.934 49.7014 300.733 50.4471 300.733 51.8861V53.157C300.733 53.9552 300.691 54.3438 300.081 55.0476C299.84 55.3101 299.525 55.5622 299.22 55.7408C299.85 56.0664 300.144 56.434 300.302 56.6861C300.691 57.3373 300.733 57.978 300.733 58.6292V59.9421C300.733 60.7823 300.628 61.6856 299.787 62.4629C298.989 63.1981 298.002 63.3451 297.025 63.3451C296.227 63.3451 295.229 63.2401 294.462 62.5259C294.305 62.3998 293.538 61.6436 293.538 60.3517V59.4064H295.691V59.816C295.691 60.1416 295.817 60.6143 296.038 60.8454C296.3 61.1289 296.815 61.234 297.161 61.234C297.697 61.234 298.023 61.0869 298.201 60.9084C298.59 60.5408 298.59 60.0891 298.59 59.6165V58.7342C298.59 58.3246 298.548 57.4423 298.012 57.0117C297.865 56.8751 297.519 56.6861 296.867 56.6861H296.216V54.743H296.794C297.361 54.743 297.876 54.5539 298.17 54.2283C298.558 53.7977 298.579 53.1675 298.579 52.8944V52.3797C298.579 52.0541 298.579 51.5395 298.149 51.1719C297.907 50.9828 297.54 50.8463 297.088 50.8463C296.678 50.8463 296.332 50.9933 296.101 51.2349C295.733 51.5815 295.691 52.0121 295.691 52.3377V52.7894H293.538V51.8861H293.527Z" fill="white"></path> <path d="M307.937 52.3798C307.937 52.0752 307.853 51.6655 307.653 51.3819C307.548 51.2349 307.223 50.8358 306.529 50.8358C305.962 50.8358 305.626 51.0773 305.406 51.3294C305.059 51.7601 305.038 52.3062 305.038 52.8209V59.3434C305.038 59.8371 305.038 60.2992 305.322 60.6773C305.469 60.8979 305.815 61.213 306.424 61.213C306.897 61.213 307.37 61.045 307.632 60.6983C307.737 60.5513 307.937 60.2047 307.937 59.4694V59.3854H310.09V59.5535C310.09 61.0449 309.575 61.9062 309.187 62.3158C308.735 62.8095 307.853 63.3242 306.361 63.3242C304.943 63.3242 304.124 62.7465 303.641 62.1793C302.864 61.276 302.885 60.2362 302.885 59.459V52.5373C302.885 51.5395 303.011 50.4156 303.988 49.5754C304.66 48.9662 305.647 48.6931 306.445 48.6931C307.349 48.6931 308.41 49.0397 309.05 49.6699C309.586 50.2056 310.017 51.1194 310.017 52.1802V52.7579H307.926V52.3798H307.937Z" fill="white"></path> <path d="M317.4 63.1351L316.843 60.3622H313.776L313.22 63.1351H311.066L314.364 48.9452H316.265L319.564 63.1351H317.4ZM315.268 52.8524L314.144 58.4296H316.434L315.268 52.8524Z" fill="white"></path> <path d="M289.859 29.6611L326.778 9.50537L300.142 29.6611H289.859Z" fill="white"></path> <path d="M313.198 26.0585L276.279 46.2247L302.916 26.0585H313.198Z" fill="white"></path> <path d="M248.562 0.010498V74.4786" stroke="#9C9B99" stroke-miterlimit="10"></path> <path d="M14.2516 42.269L18.2908 31.7314H27.126L25.1064 36.998H36.0052L41.3732 23H3.2208L7.3964 31.7314H12.76L5.786 35.9071L0 51H30.6592L34.0076 42.269H14.2516ZM176.123 23L171.345 35.4556H162.51L167.288 23H156.389L145.649 51H156.548L158.867 44.96L169.564 40.1007L165.384 51H176.287L187.022 23H176.123ZM65.2476 23L50.6528 35.5986L55.484 23H44.5852L33.8448 51H44.7436L59.2944 38.5176L54.5072 51H65.406L74.514 27.2562L77.3696 31.7314H84.238L68.5696 50.996H81.1228L96.7912 31.7314H100.338L92.95 50.996H103.849L113.01 27.1176L115.953 31.7314H122.822L107.149 50.996H119.702L127.16 41.8349L132.95 47.3116L131.538 51H142.437L153.177 23H65.2476ZM136.387 38.3437H129.998L135.375 31.7314H138.922L136.387 38.3437ZM216.652 31.7314L220 23H189.363L186.014 31.7314H200.799L193.824 35.9071L191.387 42.269H187.572L184.224 51H203.17L206.523 42.269H202.29L206.33 31.7314H216.652Z" fill="#163E6C"></path> </svg> 